<?xml version="1.0" encoding="UTF-8"?>
<svg id="Layer_1" xmlns="http://www.w3.org/2000/svg" viewBox="0 0 704 250">
  <defs>
    <style>
      .cls-1 {
        fill: #fff;
      }
    </style>
  </defs>
  <path class="cls-1" d="M173.6,35.78c-.03-.3-.32-.59-.66-.59h-17.52c-.16,0-.32.06-.43.22-.1.1-.16.27-.16.41.39,7.97.36,15.81-.15,23.29-3.67,52.57-30.26,90.8-79.15,113.64-10.63,4.96-22.36,9.17-34.88,12.59-.32.1-.51.39-.43.73.05.27.29.47.6.47h.03c.26-.05,22.54-2.9,43.34-11.23,23.79-9.47,43.16-22.56,57.64-38.86,17.02-19.16,27.38-43.1,30.71-71.01,1.13-9.4,1.49-19.36,1.07-29.67"/>
  <path class="cls-1" d="M126.03,55.28c-.17-.45-.44-.98-1.29-1.1-2.58-.12-5.09-.2-7.51-.2-25.8,0-50.04,6.52-68.29,18.32-8.85,5.74-15.84,12.45-20.7,19.91-5.04,7.68-7.6,15.9-7.6,24.38,0,9.99,3.53,19.6,10.51,28.47,6.7,8.42,16.39,15.91,28.16,21.61.08.08.29.12.57.12.15,0,.29-.02.43-.03,20.46-7.69,37.78-19.8,50.1-34.99,12.66-15.63,19.38-33.81,19.38-52.55,0-8.09-1.28-16.11-3.75-23.93"/>
  <path class="cls-1" d="M208.29,95.78c-3.47-6.45-8.57-12.45-15.13-17.88-.14-.09-.27-.15-.42-.15-.27,0-.43.27-.46.54-3.94,49.03-43.41,89.56-95.93,98.62-.25.02-.43.21-.46.39,0,.1.03.35.46.42,6.81.96,13.85,1.44,20.88,1.44,25.76,0,49.97-6.49,68.25-18.27,8.85-5.76,15.81-12.45,20.7-19.92,5.04-7.73,7.62-15.92,7.62-24.37,0-7.14-1.87-14.15-5.5-20.81"/>
  <polygon class="cls-1" points="265.77 166.83 254.31 151.12 250.05 155.54 250.05 166.83 241.92 166.83 241.92 129.92 250.05 129.92 250.05 146.07 265.04 129.92 274.86 129.92 259.81 145.57 275.55 166.83 265.77 166.83"/>
  <path class="cls-1" d="M304.29,155.47h-19.68c.81,3.64,3.33,5.58,6.94,5.58,2.66,0,4.61-.86,6.84-2.93l4.59,4.07c-2.64,3.27-6.44,5.31-11.57,5.31-8.48,0-14.78-6-14.78-14.65v-.1c0-8.06,5.76-14.74,14-14.74,9.44,0,13.78,7.37,13.78,15.39v.06c0,.82-.04,1.31-.1,2.01M290.62,144.47c-3.31,0-5.46,2.38-6.11,6.02h12.1c-.47-3.6-2.58-6.02-5.99-6.02"/>
  <path class="cls-1" d="M319.91,167.32c-4.9,0-8.23-1.96-8.23-8.51v-13.38h-3.41v-6.88h3.41v-7.18h8.01v7.18h6.66v6.88h-6.66v12.07c0,1.85.79,2.77,2.6,2.77,1.47,0,2.8-.41,3.95-1v6.41c-1.7,1-3.64,1.65-6.33,1.65"/>
  <path class="cls-1" d="M357.74,155.47h-19.67c.76,3.64,3.3,5.58,6.88,5.58,2.7,0,4.66-.86,6.87-2.93l4.6,4.07c-2.67,3.27-6.43,5.31-11.55,5.31-8.51,0-14.78-6-14.78-14.65v-.1c0-8.06,5.75-14.74,13.97-14.74,9.46,0,13.75,7.37,13.75,15.39v.06c0,.82-.04,1.31-.08,2.01M344.07,144.47c-3.34,0-5.48,2.38-6.09,6.02h12.06c-.46-3.6-2.6-6.02-5.97-6.02"/>
  <path class="cls-1" d="M381.68,166.83v-15.74c0-3.81-1.78-5.76-4.84-5.76s-5.01,1.95-5.01,5.76v15.74h-8.03v-28.28h8.03v4.01c1.83-2.36,4.2-4.54,8.28-4.54,6.07,0,9.6,4.03,9.6,10.52v18.29h-8.02Z"/>
  <path class="cls-1" d="M413.24,166.83v-3.05c-1.94,2.16-4.67,3.58-8.55,3.58-5.33,0-9.72-3.04-9.72-8.67v-.08c0-6.17,4.7-9.02,11.41-9.02,2.86,0,4.91.49,6.9,1.14v-.49c0-3.34-2.08-5.19-6.05-5.19-3.08,0-5.23.61-7.83,1.58l-2.02-6.17c3.13-1.34,6.21-2.22,10.99-2.22,8.75,0,12.63,4.52,12.63,12.15v16.42h-7.75ZM413.39,155.46c-1.38-.68-3.17-1.07-5.12-1.07-3.43,0-5.52,1.4-5.52,3.89v.11c0,2.18,1.8,3.44,4.38,3.44,3.73,0,6.27-2.08,6.27-4.96v-1.4Z"/>
  <path class="cls-1" d="M440.58,175.38c-4.6,0-8.91-1.06-12.49-2.95l2.73-6.04c2.89,1.65,5.78,2.59,9.55,2.59,5.48,0,8.05-2.59,8.05-7.67v-1.35c-2.36,2.85-4.96,4.57-9.24,4.57-6.56,0-12.53-4.81-12.53-13.18v-.1c0-8.45,6.07-13.21,12.53-13.21,4.4,0,6.99,1.86,9.17,4.24v-3.71h7.99v21.89c0,10.69-5.24,14.94-15.75,14.94M448.41,151.23c0-3.85-2.97-6.54-6.89-6.54s-6.85,2.69-6.85,6.54v.1c0,3.9,2.94,6.55,6.85,6.55s6.89-2.67,6.89-6.55v-.1Z"/>
  <path class="cls-1" d="M480.06,166.83v-3.05c-1.94,2.16-4.65,3.58-8.54,3.58-5.32,0-9.7-3.04-9.7-8.67v-.08c0-6.17,4.72-9.02,11.41-9.02,2.84,0,4.89.49,6.91,1.14v-.49c0-3.34-2.08-5.19-6.04-5.19-3.08,0-5.24.61-7.84,1.58l-1.99-6.17c3.11-1.34,6.18-2.22,10.97-2.22,8.75,0,12.59,4.52,12.59,12.15v16.42h-7.76ZM480.26,155.46c-1.38-.68-3.2-1.07-5.14-1.07-3.44,0-5.56,1.4-5.56,3.89v.11c0,2.18,1.79,3.44,4.38,3.44,3.75,0,6.31-2.08,6.31-4.96v-1.4Z"/>
  <polygon class="cls-1" points="512.96 166.83 505.56 155.33 502.77 158.25 502.77 166.83 494.77 166.83 494.77 128.36 502.77 128.36 502.77 148.84 512.16 138.55 521.75 138.55 511.01 149.68 522.11 166.83 512.96 166.83"/>
  <path class="cls-1" d="M550.92,155.47h-19.67c.78,3.64,3.31,5.58,6.92,5.58,2.7,0,4.64-.86,6.86-2.93l4.57,4.07c-2.62,3.27-6.42,5.31-11.56,5.31-8.48,0-14.77-6-14.77-14.65v-.1c0-8.06,5.78-14.74,14.01-14.74,9.43,0,13.75,7.37,13.75,15.39v.06c0,.82-.03,1.31-.13,2.01M537.29,144.47c-3.35,0-5.53,2.38-6.14,6.02h12.11c-.52-3.6-2.61-6.02-5.98-6.02"/>
  <path class="cls-1" d="M573.6,146.41c-5.29,0-8.6,3.21-8.6,9.99v10.43h-8.01v-28.28h8.01v5.71c1.65-3.92,4.29-6.45,9.05-6.25v8.39h-.45Z"/>
  <path class="cls-1" d="M578.37,175.43c-1.49,0-2.38-.12-3.49-.3v-6.31c.64.12,1.1.14,1.69.14,1.69,0,2.84-.87,2.84-3.23v-27.18h8.02v27.83c0,6.21-3.15,9.05-9.07,9.05M579.2,128.36h8.47v7.06h-8.47v-7.06Z"/>
  <path class="cls-1" d="M611.55,166.83v-3.05c-1.97,2.16-4.66,3.58-8.55,3.58-5.31,0-9.69-3.04-9.69-8.67v-.08c0-6.17,4.7-9.02,11.41-9.02,2.82,0,4.87.49,6.87,1.14v-.49c0-3.34-2.04-5.19-6.04-5.19-3.1,0-5.21.61-7.81,1.58l-2-6.17c3.07-1.34,6.19-2.22,10.97-2.22,8.75,0,12.61,4.52,12.61,12.15v16.42h-7.76ZM611.69,155.46c-1.35-.68-3.15-1.07-5.1-1.07-3.41,0-5.52,1.4-5.52,3.89v.11c0,2.18,1.78,3.44,4.33,3.44,3.75,0,6.29-2.08,6.29-4.96v-1.4Z"/>
  <path class="cls-1" d="M642.8,166.83v-3.05c-1.95,2.16-4.66,3.58-8.54,3.58-5.34,0-9.71-3.04-9.71-8.67v-.08c0-6.17,4.67-9.02,11.39-9.02,2.84,0,4.91.49,6.9,1.14v-.49c0-3.34-2.06-5.19-6.08-5.19-3.04,0-5.2.61-7.78,1.58l-2-6.17c3.12-1.34,6.17-2.22,10.98-2.22,8.75,0,12.59,4.52,12.59,12.15v16.42h-7.75ZM642.97,155.46c-1.4-.68-3.17-1.07-5.13-1.07-3.44,0-5.56,1.4-5.56,3.89v.11c0,2.18,1.79,3.44,4.4,3.44,3.76,0,6.29-2.08,6.29-4.96v-1.4Z"/>
  <path class="cls-1" d="M675.35,166.83v-15.74c0-3.81-1.8-5.76-4.87-5.76s-5.01,1.95-5.01,5.76v15.74h-8.01v-28.28h8.01v4.01c1.84-2.36,4.22-4.54,8.28-4.54,6.09,0,9.62,4.03,9.62,10.52v18.29h-8.02Z"/>
  <path class="cls-1" d="M264.58,65.88c9.3,0,15.8,6.2,15.8,13.83,0,4.88-3.34,9.06-6.49,10.17v.06c4.93,1.36,9.17,7.02,9.17,12.29,0,8.73-5.73,15.81-18.63,15.81h-22.5v-52.16h22.65ZM261.97,86.22c3.35,0,5.82-2.05,5.82-4.88s-2.47-4.9-5.82-4.9h-7.54v9.78h7.54ZM263.18,107.52c4.15,0,6.77-2.42,6.77-5.85,0-3.66-2.85-5.88-6.77-5.88h-8.75v11.74h8.75Z"/>
  <path class="cls-1" d="M311.72,65.88c12.8,0,20.58,6.73,20.58,17.9s-7.77,17.88-20.58,17.88h-7.36v16.37h-12.51v-52.16h19.88ZM311.5,89.95c4.81,0,7.72-2.28,7.72-6.17s-2.9-6.19-7.72-6.19h-7.15v12.35h7.15Z"/>
  <path class="cls-1" d="M371.66,65.88v29.01c0,15.63-9.67,24.21-23.46,24.21-9.96,0-18.39-5.68-21.5-13.33l12.28-3.3c1.78,3.13,4.98,4.9,9.22,4.9,6.87,0,10.95-4.59,10.95-12.04v-29.46h12.51Z"/>
  <path class="cls-1" d="M409.73,82.46c-1.27-4.64-5.27-6.82-9-6.82s-5.85,1.9-5.85,3.97c0,3.44,5.18,4.7,11.53,7.03,7.75,2.78,15.86,7.2,15.86,16.15,0,9.53-8.2,16.32-20.35,16.32-10.88,0-18.62-6.04-22.05-15.81l12-3.21c1.36,3.92,5.06,7.88,10.58,7.88,4.47,0,6.56-2.07,6.56-4.59,0-4.2-6.12-5.21-13.6-8.04-6.25-2.38-13.45-5.82-13.45-14.98,0-8.1,8.18-15.49,19.49-15.49,10,0,17.88,6.1,20.35,14.29l-12.07,3.3Z"/>
</svg>